<svg xmlns="http://www.w3.org/2000/svg" version="1.1" xmlns:xlink="http://www.w3.org/1999/xlink" xmlns:svgjs="http://svgjs.dev/svgjs" width="1440" height="560" preserveAspectRatio="none" viewBox="0 0 1440 560"><g mask="url(&quot;#SvgjsMask1364&quot;)" fill="none"><rect width="1440" height="560" x="0" y="0" fill="#0e2a47"></rect><circle r="5.745" cx="1001.905" cy="321.46500000000003" filter="url(#SvgjsFilter1365)" fill="rgba(51, 121, 194, 0.58)"></circle><circle r="5.33" cx="977.1" cy="227.01000000000002" filter="url(#SvgjsFilter1365)" fill="rgba(51, 121, 194, 0.58)"></circle><circle r="4.87" cx="937.95" cy="39.21" filter="url(#SvgjsFilter1365)" fill="rgba(51, 121, 194, 0.58)"></circle><circle r="4.895" cx="233.895" cy="326.445" filter="url(#SvgjsFilter1365)" fill="rgba(51, 121, 194, 0.58)"></circle><circle r="7.32" cx="356.89" cy="544.3000000000001" filter="url(#SvgjsFilter1365)" fill="rgba(51, 121, 194, 0.58)"></circle><circle r="6.46" cx="1094.19" cy="33.54" filter="url(#SvgjsFilter1365)" fill="rgba(51, 121, 194, 0.58)"></circle><circle r="8.64" cx="1120.49" cy="35.8" filter="url(#SvgjsFilter1365)" fill="rgba(51, 121, 194, 0.58)"></circle><circle r="7.51" cx="114.30000000000001" cy="281.86" filter="url(#SvgjsFilter1365)" fill="rgba(51, 121, 194, 0.58)"></circle><circle r="8.12" cx="517.84" cy="348.86" filter="url(#SvgjsFilter1365)" fill="rgba(51, 121, 194, 0.58)"></circle><circle r="8.795" cx="915.735" cy="438.285" filter="url(#SvgjsFilter1365)" fill="rgba(51, 121, 194, 0.58)"></circle><circle r="6.49" cx="198.57000000000002" cy="47.690000000000005" filter="url(#SvgjsFilter1365)" fill="rgba(51, 121, 194, 0.58)"></circle><circle r="7.15" cx="1426.3100000000002" cy="330.66999999999996" filter="url(#SvgjsFilter1365)" fill="rgba(51, 121, 194, 0.58)"></circle><circle r="6.95" cx="487.03" cy="378.28" filter="url(#SvgjsFilter1365)" fill="rgba(51, 121, 194, 0.58)"></circle><circle r="6.765" cx="1175.4750000000001" cy="268.325" filter="url(#SvgjsFilter1365)" fill="rgba(51, 121, 194, 0.58)"></circle><circle r="6.71" cx="378.93" cy="218.06" filter="url(#SvgjsFilter1365)" fill="rgba(51, 121, 194, 0.58)"></circle><circle r="5.765" cx="911.135" cy="498.66499999999996" filter="url(#SvgjsFilter1365)" fill="rgba(51, 121, 194, 0.58)"></circle><circle r="8.99" cx="553.9" cy="327.32" filter="url(#SvgjsFilter1365)" fill="rgba(51, 121, 194, 0.58)"></circle><circle r="7.06" cx="410.21" cy="455.65" filter="url(#SvgjsFilter1365)" fill="rgba(51, 121, 194, 0.58)"></circle><circle r="9.155" cx="907.035" cy="538.515" filter="url(#SvgjsFilter1365)" fill="rgba(51, 121, 194, 0.58)"></circle><circle r="5.265" cx="1043.135" cy="158.64499999999998" filter="url(#SvgjsFilter1365)" fill="rgba(51, 121, 194, 0.58)"></circle><path d="M136.5 175.7L186.4 186.3 196.3 202.1 179.4 198.5C177.7 197.6 176.3 199.1 175.4 200.8 175.4 202.2 176.5 204.2 177.9 204.2L201.1 209.6 211.2 224.9 192.9 225.6 175.3 209.3C175.3 209.3 174.7 209.1 174.7 209.1 173.6 208.5 171.9 209 170.7 209.9 169.8 211.6 169.8 213 171.2 214.5L184 226 165.7 226.7 127.7 192.8C127.7 192.8 127.4 191.9 127.4 191.9 126.3 191.3 124.6 191.9 123.4 192.7 122 194.2 122.2 196.4 123.9 197.3L156.8 227.2 134.4 228.6 119.7 215.3C119.7 215.3 119.7 215.3 119.1 215 118 214.4 116.6 214.4 115.4 215.3 114.5 217 114.2 219 115.6 220.4L125.6 229.1 109.2 230.1C107.2 229.8 106.4 231.5 106.4 232.9 106 234.9 107.5 236.4 109.7 236.1L125.8 235.7 116.8 244.8C115.9 246.5 115.6 248.5 117.3 249.3 118.7 250.8 120.2 250.8 121.6 249.4L135 234.7 157 233.8 126.9 267.2C125.7 268 126 270.3 127.4 271.8 128.5 272.4 130.5 272.7 132 271.3L165.9 233.3 184.2 232.6 172.6 245.4C171.2 246.8 171.7 248.5 173.1 250 174 251.1 176.3 250.9 177.4 250L193.1 232.2 211.7 230.9 203.2 247.4 180.8 254.6C179.1 255.2 178.2 256.9 178.8 258.6 178.8 260 181 261.2 182.8 260.7L199.1 255.4 190.6 271.9 141.8 287.1C140.1 287.7 139.2 289.4 139.8 291.1 140.3 292.8 142 293.7 143.8 293.1L186.5 279.9 176.6 299.2 157.6 305.3C155.9 305.9 155 307.6 155.6 309.3 156.1 311 157.9 311.9 159.6 311.4L172.2 307.8 164.9 322C164 323.7 164.6 325.4 166.3 326.3 168 327.2 169.7 326.6 170.6 324.9L177.9 310.7 181.8 322.8C182.3 324.5 184 325.4 185.8 324.8S188.4 322.6 187.8 320.8L182 302.7 192.2 282.8 205.8 325C206.4 326.8 208.1 327.6 209.8 327.1 211.5 326.5 212.4 324.8 211.8 323.1L196.3 274.8 204.8 258.3 210.1 274.7C210.6 276.4 212.3 277.3 214.1 276.8 215.8 276.2 216.7 274.5 216.1 272.8L208.9 250.4 217.1 234.4 226.7 249.4 221.8 272.8C221.8 274.3 222.9 276.3 224.4 276.3 226.4 276.6 227.5 275.8 228.4 274.1L232 257.2 241.6 272.2 231 322.2C230.7 324.2 231.6 325.3 233.3 326.2 235.3 326.5 236.7 325.1 237.3 324L246.9 280 258.8 299 254.8 317.9C253.9 319.6 255.4 321 257.1 321.9 258.5 321.9 260.5 320.8 260.8 318.8L263.5 306.5 272.5 319.8C273.1 321.5 275.1 321.8 277.1 320.7 278.3 319.8 278.6 317.8 277.7 316.7L269 302.8 281.9 305.8C283.9 306.2 285.3 304.7 285.3 303.3 286.2 301.6 285.4 300.4 284.2 299.9 283.6 299.6 283.6 299.6 283.1 299.3L264.2 295.3 252.4 276.3 295.8 285.7C297.5 286.6 299 285.1 299.9 283.4 299.9 282 299 280.8 297.9 280.3 297.3 280 297.3 280 297.3 280L247.1 268.5 237.5 253.5 254.4 257.2C256.4 257.5 257.5 256.6 258.4 254.9 258.4 253.5 257.8 251.8 256.7 251.2 256.1 250.9 256.1 250.9 255.6 250.6L232.2 245.8 222.6 230.8 240.3 229.8 258.2 245.5C259.6 246.9 261.9 246.7 263.1 245.8 263.9 244.1 264.2 242.1 262.5 241.2L249.8 229.6 267.8 228.1 306.1 262.9C306.9 264 309.2 263.8 310.4 262.9 311.3 261.2 311.6 259.2 310.2 257.8L277.3 227.9 299.3 227 313.5 240.1C314.9 241.5 317.2 241.3 318.1 239.6 319.2 238.7 319.6 236.7 318.1 235.3L308.2 226.6 324.5 225.6C326 225.6 327.4 224.2 327.7 222.2 327.5 221.3 326.6 220.2 325.5 219.6 325.5 219.6 324.9 219.3 324.3 219L308 220 316.7 210.1C317.9 209.2 317.6 206.9 316.7 205.8 316.2 205.5 316.2 205.5 316.2 205.5 314.5 204.6 312.7 205.1 312.2 206.3L299.1 220.4 276.8 221.9 306.9 188.5C307.8 186.8 307.8 185.3 306.4 183.9 306.4 183.9 305.8 183.6 305.8 183.6 304.7 183 303.3 183 301.8 184.4L267.3 222.1 249.6 223 261.2 210.3C262 208.6 262.4 206.6 260.6 205.7 260.9 205.1 260.4 204.8 260.4 204.8 259.2 204.3 257.5 204.8 256.4 205.7L240.7 223.5 222.4 224.2 230.6 208.2 253 201C254.7 200.5 255.9 198.2 255.3 196.5 254.5 195.3 252.8 194.5 251.3 194.4L234.7 200.3 243.1 183.8 291.4 168.3C293.1 167.7 294 166 293.4 164.3 292.9 162.6 291.2 161.7 289.5 162.2L247.2 175.8 257.5 155.9 275.6 150.1C277.3 149.5 278.2 147.8 277.6 146.1S275.4 143.5 273.6 144L261.6 147.9 268.9 133.7C269.8 132 269.2 130.2 267.5 129.4 265.8 128.5 264.1 129 263.2 130.7L255.9 145 251.4 132.6C251.2 131.8 250.9 130.9 250.3 130.6 249.7 130.3 248.3 130.3 247.5 130.6 245.7 131.1 244.9 132.8 245.4 134.6L251.8 152.9 241.5 172.9 227.4 130.4C227.1 129.5 226.9 128.6 226.3 128.3 225.7 128 224.3 128 223.4 128.3 221.7 128.9 220.8 130.6 221.4 132.3L237.5 180.8 229 197.3 224 180.4C223.7 179.5 222.6 179 222 178.7 221.4 178.4 220.9 178.1 220 178.4 218.3 178.9 217.1 181.2 218 182.3L224.9 205.3 216.7 221.3 206.5 206 212 182.8C212 181.4 211.4 179.7 210.3 179.1 209.7 178.8 209.7 178.8 209.4 179.4 207.7 178.5 205.7 179.6 205.4 181.6L201.8 198.5 191.6 183.2 203.1 132.9C203.1 131.5 202.2 130.4 201.1 129.8 200.5 129.5 200.5 129.5 200.5 129.5 198.5 129.2 196.8 129.7 196.5 131.7L186.8 175.7 175 156.7 179 137.8C179.3 135.8 178.4 134.7 177.3 134.1 177.3 134.1 176.7 133.8 176.7 133.8 174.7 133.5 173.3 134.9 172.7 136L170.2 149.2 161.5 135.3C161 135.1 160.4 134.8 159.8 134.5 159.3 134.2 157.8 134.2 157 134.4 155.5 135.9 154.6 137.6 156.1 139L164.8 152.8 151.9 149.8C149.9 149.5 148.5 150.9 147.9 152.1 147.6 154.1 149 155.5 150.7 156.4L169.6 160.3 181.7 178.8 138.3 169.4C136.3 169.1 134.2 170.2 134.2 171.7 133.9 173.7 134.5 175.4 136.5 175.7Z" fill="rgba(51, 121, 194, 0.58)"></path><path d="M531.1 195.4L553.4 197.9 545.9 209.1C545 210.2 545.2 212.2 546.6 213.7 548.3 214.3 550.3 214.1 550.9 212.4L560.8 198.7 578.2 199.8 557.5 228.4C556.9 230.1 557.1 232.1 558.2 233 560.2 234.2 562.2 234 562.9 232.3L585.7 200.7 612.2 203.2 591.7 226.1 622.4 225.3 607 247.2 568.2 243.9C567.9 243.3 567.3 243.6 566.8 243.9 565.6 244.4 564.7 245.5 564.7 246.9 564.6 248.4 566 249.8 567.7 250.5L602.8 253.3 592.3 267.3 575.5 265.9C574.6 265.6 574.1 265.9 573.5 266.1 572.9 266.4 572 267.5 572 268.9 571.9 270.4 573.3 271.8 574.7 271.9L588.1 273.5 575.5 292C574 293.3 574.8 295.1 576.2 296.6 577.3 297.5 579.3 297.2 580.5 295.3L593.4 277.4 599.1 289.6C599.9 291.3 602.1 291.7 603.3 291.2 605 290.4 605.7 288.7 604.9 286.9L597.7 271.2 608.1 257.2 622.6 288.6C623.4 290.4 625.1 291 626.8 290.2 628 289.7 629.2 287.7 628.4 286L612.3 251.1 627.7 229.2 637.3 257.9 651.9 231.5 663.2 255.9 640.9 287.2C639.7 289.2 640.5 291 641.6 291.8 642.8 292.7 644.8 292.5 646.3 291.1L666.1 262.3 673.3 278 663.7 292.3C662.2 293.7 662.4 295.7 664.4 296.9 665.5 297.8 667.5 297.6 668.7 295.6L676.5 285 685.9 305.3C686.7 307.1 688.4 307.7 690.1 306.9S692.5 304.4 691.7 302.7L682.3 282.3 695.5 283.3C697.8 283.7 699.2 282.3 699.3 280.9 699.6 278.6 698.3 277.1 696.3 277.3L679.1 275.3 671.9 259.6 706.7 263.3C708.7 263.1 710.2 261.7 710.3 260.3 710.6 258 709.2 256.6 707.2 256.8L669 253.2 657.8 228.8 687.3 234.9 671.9 208.9 698.4 211.5 714.5 246.4C715.3 248.2 717.5 248.5 718.7 248 720.4 247.2 721.1 245.5 720.3 243.7L705.6 211.8 723.3 213.5 730.5 229.2C731.3 230.9 733 231.6 734.7 230.8 735.9 230.2 737.1 228.3 736.3 226.5L730.7 214.3 752.7 216.2C755 216.5 756.4 215.2 756.2 213.1 756.3 211.7 755.5 210 753.4 210.2L731.2 207.7 738.7 196.5C739.6 195.4 739.4 193.4 738.3 192.5 737.2 191.6 735.7 191.6 735.1 191.8 734.6 192.1 734 192.4 733.7 193.2L723.8 206.9 706.3 205.8 727 177.2C727.7 175.5 727.4 173.5 726.3 172.6 725.2 171.7 723.8 171.7 722.6 172.2 722 172.5 722 172.5 721.7 173.3L698.9 205 672.4 202.4 692.9 179.6 662.2 180.3 677.5 158.4 716.4 161.7C717.8 161.8 719.6 161 719.9 158.7 720 157.3 718.6 155.8 716.9 155.1L681.8 152.3 692.2 138.3 709.1 139.7C710.8 140.3 712.3 139 712.6 136.7 712.7 135.2 711.3 133.8 709.6 133.1L696.4 132.1 709.1 113.7C710.6 112.3 709.8 110.5 708.4 109 707.5 108.7 706.1 108.7 705.5 109 704.9 109.2 704.4 109.5 704 110.3L691.1 128.2 685.5 116C684.7 114.3 682.4 113.9 681.3 114.5L681.3 114.5C679.5 115.3 678.9 117 679.7 118.7L686.9 134.4 676.4 148.4 662 117C661.2 115.2 659.5 114.6 657.8 115.4S655.4 117.9 656.2 119.6L672.2 154.5 656.9 176.4 647.3 147.7 632.6 174.1 621.4 149.7 643.6 118.4C644.8 116.4 644 114.7 642.9 113.8 641.8 112.9 639.8 113.1 638.3 114.5L618.2 142.7 611.3 127.6 620.9 113.3C622.4 111.9 622.1 109.9 620.2 108.7 619.1 107.8 617.1 108 615.6 109.4L608.1 120.6 598.7 100.3C597.9 98.5 596.2 97.9 594.5 98.7S592.1 101.2 592.9 103L602.2 123.3 589.1 122.3C588.2 122 587.7 122.3 587.1 122.5 585.9 123.1 585.6 123.9 585.3 124.8 584.9 127 586.3 128.5 588.3 128.3L605.4 130.3 612.7 146 577.8 142.3C577.3 142.5 576.7 142.8 576.1 143.1 574.9 143.6 574.6 144.5 574.3 145.3 573.9 147.6 575.3 149.1 577.3 148.8L615.6 152.4 626.8 176.8 597.2 170.7 612.7 196.7 586.2 194.1 570.1 159.2C569.3 157.5 567 157.1 565.9 157.6 564.1 158.4 563.5 160.1 564.3 161.9L578.7 193.3 561.3 192.1 554.1 176.4C553.3 174.7 551.6 174 549.9 174.9S547.5 177.3 548.3 179.1L553.9 191.3 531.9 189.4C531.1 189.1 530.5 189.4 529.9 189.7 529.3 189.9 528.4 191 528.4 192.5 528.3 193.9 529.1 195.6 531.1 195.4ZM609.8 179.7L634 184.8 645.9 163.1 654 186.9 678.3 186.2 662.3 204.9 674.7 225.9 650.6 220.8 638.7 242.5 630.9 219.3 606.2 219.4 622.6 201.3 609.8 179.7Z" fill="rgba(51, 121, 194, 0.58)"></path><path d="M947.3 57.5L951.6 89.1 944.3 98.2 942.9 87.6C943.1 86.4 942 85.8 940.8 85.7 939.9 86 939 87 939.3 87.9L940.9 102.6 934 111.8 929.8 101.2 935.7 87.4C935.7 87.4 935.7 87 935.7 87 935.8 86.2 935.2 85.3 934.4 84.8 933.2 84.7 932.4 85 931.8 86.1L927.7 96 923.4 85.4 935.5 55.9C935.5 55.9 935.9 55.6 935.9 55.6 936 54.8 935.3 53.9 934.6 53.4 933.4 52.8 932.1 53.4 932 54.6L921.3 80.2 915.8 67.4 920.5 55.9C920.5 55.9 920.5 55.9 920.6 55.5 920.7 54.7 920.4 53.9 919.6 53.4 918.5 53.2 917.2 53.5 916.7 54.6L913.6 62.3 909.6 52.9C909.4 51.6 908.2 51.5 907.4 51.8 906.1 52 905.6 53.1 906.2 54.4L909.8 63.8 902.6 60.4C901.4 60.2 900.1 60.5 900 61.7 899.4 62.8 899.7 63.6 900.9 64.2L912.3 69 917.5 81.8 891.5 71C890.7 70.5 889.4 71.2 888.9 72.3 888.8 73.1 889 74.3 890.1 74.9L919.6 86.9 923.8 97.5 913.9 93.4C912.8 92.8 911.9 93.5 911.3 94.7 910.8 95.4 911.4 96.7 912.2 97.2L926 102.7 930.6 113.4 919.1 111.8 910.2 100.1C909.5 99.3 908.3 99.1 907.4 99.8 906.6 100.1 906.3 101.7 907 102.6L913.6 111.1 902.1 109.6 882.9 84C882.2 83.1 881 82.9 880.1 83.6 879.2 84.3 879 85.5 879.7 86.4L896.5 108.8 883 107 875.5 97.1C874.8 96.2 873.6 96.1 872.7 96.8 871.8 97.4 871.6 98.6 872.3 99.5L877.1 106.2 867.2 104.9C866 104.7 865.1 105.4 864.9 106.6 864.8 107.8 865.5 108.7 866.6 108.9L876.6 110.2 870.3 115C869.4 115.7 869.2 116.9 869.9 117.8S871.8 118.8 872.7 118.1L882.1 110.9 896 112.8 874 129.6C873.1 130.3 872.9 131.5 873.6 132.4 874.3 133.3 875.5 133.5 876.4 132.8L901.5 113.5 913 115.1 904.5 121.6C903.6 122.3 903.4 123.5 904.1 124.4 904.8 125.3 906 125.4 906.9 124.7L918.6 115.8 929.7 117.3 922.9 126.1 908.1 128.1C907.2 128.4 906.3 129.5 906.6 130.3 906.8 131.6 907.5 132.1 908.7 132.2L919.4 130.8 912.6 139.6 880.9 143.9C879.7 144.1 879.2 144.8 879 146 879.3 147.3 880.4 147.8 881.2 147.9L909.1 144.4 900.4 155.3 888.5 157C887.3 156.8 886.7 158 886.6 159.1 886.9 160 887.9 160.9 889.2 160.7L897 159.7 891.1 167.8C890.2 168.5 890.4 169.7 891.5 170.7 892.2 171.2 893.5 171 894 170.2L900.3 162.2 901.2 170.4C901.4 171.6 902.6 172.2 903.4 171.9 904.6 172 905.1 171.3 905.2 170.5 905.3 170.1 905.3 170.1 905.3 169.7L903.7 157.8 912.4 146.9 916 174.4C915.9 175.6 917 176.1 918.2 176.3 919 176 919.5 175.2 919.6 174.5 919.7 174.1 919.7 174.1 919.7 174.1L915.9 142.1 922.7 133.3 924.1 144C924.3 145.2 925.1 145.7 926.3 145.9 927.1 145.6 928 144.9 928.1 144.1 928.2 143.7 928.2 143.7 928.2 143.3L926.2 128.5 933 119.7 937.3 130 931.8 143.8C931.2 144.9 931.9 146.2 932.6 146.7 933.8 146.9 935 146.6 935.2 145.5L939.4 135.5 944 145.8 931.6 175.6C931.1 176.4 931.7 177.7 932.5 178.2 933.6 178.3 934.9 178.1 935.4 177L946.1 151.4 951.3 164.1 946.6 175.2C946 176.4 946.6 177.7 947.8 177.8 948.6 178.3 949.8 178.1 950.4 176.9L953.4 169.3 957.4 178.7C957.7 179.5 958.8 180.1 960.1 179.8 960.5 179.5 961 178.8 961.1 178 961.1 178 961.2 177.6 961.2 177.2L957.2 167.8 964.9 170.8C965.7 171.3 966.9 170.7 967.5 169.9 967.5 169.5 967.5 169.5 967.5 169.5 967.7 168.4 967 167.5 966.2 167.3L955.1 162.6 949.6 149.8 975.6 160.5C976.8 160.7 977.6 160.4 978.2 159.3 978.2 159.3 978.2 158.9 978.2 158.9 978.3 158.1 978 157.2 976.9 156.7L947.5 144.3 943.2 134 953.1 138.2C954.3 138.3 955.6 138.1 955.7 136.9 956.1 136.9 956.2 136.6 956.2 136.6 956.3 135.8 955.6 134.9 954.8 134.4L941 128.9 936.8 118.2 947.9 119.7 956.9 131.4C957.5 132.3 959.1 132.5 960 131.8 960.5 131.1 960.7 129.9 960.4 129L953.5 120.5 965 122 984.2 147.2C984.9 148.1 986.1 148.2 987 147.5 987.9 146.8 988 145.6 987.4 144.7L970.5 122.7 984.4 124.6 991.6 134C992.3 134.9 993.5 135.1 994.4 134.4S995.4 132.5 994.8 131.6L990 125.3 999.9 126.6C1001.1 126.8 1002 126.1 1002.1 124.9 1002.3 123.7 1001.6 122.8 1000.4 122.7L990.5 121.4 996.8 116.1C997.3 115.8 997.7 115.5 997.8 115.1 997.8 114.7 997.5 113.8 997.2 113.4 996.5 112.5 995.3 112.3 994.4 113L984.9 120.6 971.1 118.8 993.1 101.5C993.6 101.2 994 100.8 994.1 100.4 994.1 100.1 993.8 99.2 993.5 98.8 992.8 97.9 991.6 97.7 990.7 98.4L965.5 118 954 116.5 962.9 110C963.4 109.7 963.5 108.9 963.5 108.5 963.6 108.1 963.7 107.7 963.3 107.2 962.6 106.3 961 106.1 960.5 106.9L948.5 115.7 937.4 114.3 944.2 105.1 959 103.4C959.8 103.1 960.7 102.5 960.8 101.7 960.9 101.3 960.9 101.3 960.5 101.2 960.6 100 959.6 99.1 958.3 99.3L947.6 100.7 954.5 91.5 986.5 87.7C987.3 87.4 987.8 86.7 987.9 85.9 988 85.5 988 85.5 988 85.5 987.8 84.3 987.1 83.4 985.8 83.6L957.9 87.1 966.6 76.2 978.6 74.6C979.8 74.3 980.3 73.6 980.4 72.8 980.4 72.8 980.5 72.4 980.5 72.4 980.2 71.2 979.1 70.6 978.3 70.5L970.1 71.8 976.4 63.8C976.4 63.4 976.5 63 976.5 62.6 976.6 62.2 976.3 61.4 975.9 60.9 974.8 60.3 973.6 60.2 973.1 61.3L966.7 69.4 965.8 61.2C965.6 59.9 964.4 59.4 963.7 59.3 962.4 59.5 961.9 60.6 961.7 61.8L963.3 73.7 955 84.7 951.4 57.2C951.2 56 950.1 55 949.3 55.3 948 55.6 947.1 56.2 947.3 57.5Z" fill="rgba(51, 121, 194, 0.58)"></path><path d="M1397.4 293.1L1393.2 344 1378.7 355.7 1380.2 338.5C1380.8 336.7 1379.2 335.5 1377.4 334.8 1376 335 1374.2 336.3 1374.3 337.8L1371.8 361.4 1357.9 373.3 1355 355.2 1368.9 335.8C1368.9 335.8 1369.1 335.2 1369.1 335.2 1369.6 334 1368.8 332.3 1367.8 331.3 1366 330.7 1364.6 330.8 1363.3 332.4L1353.4 346.5 1350.5 328.4 1379.4 286.5C1379.4 286.5 1380.2 286.1 1380.2 286.1 1380.7 284.9 1379.9 283.3 1378.9 282.2 1377.3 281 1375.1 281.5 1374.4 283.3L1348.9 319.6 1344.7 297.7 1356.1 281.4C1356.1 281.4 1356.1 281.4 1356.3 280.8 1356.7 279.6 1356.6 278.1 1355.6 277.1 1353.8 276.4 1351.8 276.4 1350.5 278L1343.1 288.9 1340.1 272.8C1340.2 270.8 1338.4 270.1 1336.9 270.3 1334.9 270.2 1333.7 271.8 1334.2 274.1L1336.6 289.9 1326.5 282.2C1324.7 281.5 1322.7 281.4 1322 283.2 1320.7 284.8 1320.9 286.2 1322.5 287.5L1338.8 298.9 1342.4 320.7 1305.5 294.9C1304.5 293.9 1302.3 294.4 1301 296 1300.6 297.2 1300.5 299.2 1302.1 300.5L1344 329.4 1346.9 347.5 1332.8 337.6C1331.2 336.3 1329.6 337.1 1328.3 338.7 1327.3 339.7 1327.8 341.9 1328.8 343L1348.5 356.3 1352 374.6 1334.6 368.2 1324.7 346.9C1323.9 345.2 1322.1 344.6 1320.4 345.4 1319 345.5 1318.1 347.9 1318.9 349.6L1326.2 365.2 1308.7 358.8 1287.6 312.2C1286.8 310.6 1285 309.9 1283.4 310.7 1281.7 311.5 1281.1 313.3 1281.8 314.9L1300.3 355.7 1279.9 348.3 1271.5 330.2C1270.7 328.6 1268.9 327.9 1267.3 328.7 1265.6 329.4 1265 331.2 1265.7 332.9L1270.9 345 1255.8 339.5C1254 338.8 1252.4 339.6 1251.7 341.4 1251.1 343.2 1251.8 344.8 1253.6 345.5L1268.7 351 1257.2 356.3C1255.5 357.1 1254.9 358.9 1255.6 360.5S1258.2 362.8 1259.8 362.1L1277.1 354 1298.1 361.7 1257.9 380.4C1256.3 381.2 1255.6 383 1256.4 384.6 1257.1 386.3 1258.9 386.9 1260.6 386.2L1306.5 364.8 1324 371.2 1308.4 378.4C1306.7 379.2 1306.1 381 1306.8 382.6 1307.6 384.3 1309.4 384.9 1311 384.2L1332.4 374.2 1349.2 380.4 1335.5 391.7 1311.7 389.8C1310.3 390 1308.4 391.4 1308.6 392.8 1308.5 394.8 1309.5 395.9 1311.3 396.5L1328.5 398 1314.8 409.4 1263.9 405.1C1261.9 405 1260.8 406 1260.2 407.8 1260.1 409.8 1261.7 411.1 1262.9 411.5L1307.7 415.7 1290.3 429.7 1271.1 428.2C1269.3 427.5 1268.1 429.1 1267.4 430.9 1267.6 432.3 1268.9 434.2 1271 434.2L1283.5 435.4 1271.4 446C1269.8 446.8 1269.7 448.8 1271.1 450.7 1272.1 451.7 1274.1 451.8 1275.1 450.8L1287.8 440.4 1286.4 453.5C1286.3 455.5 1287.9 456.8 1289.3 456.6 1291.2 457.3 1292.2 456.3 1292.6 455.1 1292.8 454.5 1292.8 454.5 1293.1 453.9L1294.6 434.7 1312 420.6 1308.1 464.9C1307.5 466.7 1309.1 467.9 1310.9 468.6 1312.3 468.4 1313.3 467.4 1313.8 466.2 1314 465.6 1314 465.6 1314 465.6L1319.1 414.4 1332.8 403 1331.3 420.2C1331.2 422.2 1332.2 423.2 1334 423.9 1335.4 423.7 1337.1 423 1337.5 421.8 1337.7 421.2 1337.7 421.2 1338 420.6L1339.8 396.7 1353.5 385.4 1356.7 402.9 1343.4 422.5C1342.1 424.1 1342.6 426.4 1343.6 427.4 1345.4 428.1 1347.5 428.1 1348.1 426.3L1358 412.2 1361.8 429.9 1332 472.2C1331 473.2 1331.5 475.4 1332.5 476.5 1334.3 477.1 1336.3 477.2 1337.6 475.6L1363.1 439.3 1366.8 461.1 1355.6 476.7C1354.3 478.3 1354.9 480.6 1356.7 481.2 1357.7 482.3 1359.7 482.3 1360.9 480.7L1368.3 469.8 1371.3 485.9C1371.5 487.3 1373.1 488.6 1375.1 488.6 1375.9 488.2 1377 487.3 1377.4 486.1 1377.4 486.1 1377.6 485.5 1377.8 484.9L1374.8 468.8 1385.8 476.2C1386.8 477.2 1389 476.7 1390 475.7 1390.3 475.1 1390.3 475.1 1390.3 475.1 1390.9 473.3 1390.2 471.6 1389 471.2L1373.3 460 1369 438 1406 463.8C1407.8 464.5 1409.2 464.3 1410.5 462.7 1410.5 462.7 1410.7 462.1 1410.7 462.1 1411.1 460.9 1410.9 459.5 1409.4 458.2L1367.7 428.7 1364.5 411.2 1378.6 421.1C1380.4 421.8 1382.5 421.8 1383.1 420 1383.7 420.2 1383.9 419.6 1383.9 419.6 1384.4 418.4 1383.6 416.8 1382.6 415.8L1363 402.4 1360 384.3 1376.9 390.5 1386.8 411.8C1387.6 413.5 1390 414.3 1391.6 413.6 1392.6 412.6 1393.3 410.8 1393.1 409.4L1385.3 393.6 1402.7 399.9 1424.1 445.9C1424.9 447.5 1426.7 448.2 1428.3 447.4 1429.9 446.7 1430.6 444.9 1429.8 443.2L1411.1 403 1432.2 410.7 1440.2 427.9C1441 429.6 1442.8 430.2 1444.4 429.5S1446.7 426.9 1445.9 425.2L1440.6 413.8 1455.6 419.2C1457.4 419.9 1459.1 419.1 1459.7 417.3 1460.4 415.5 1459.6 413.9 1457.8 413.2L1442.8 407.7 1454.5 401.8C1455.3 401.4 1456.1 401 1456.4 400.4 1456.6 399.8 1456.4 398.4 1456 397.6 1455.3 395.9 1453.5 395.3 1451.8 396.1L1434.4 404.7 1413.3 397 1453.8 377.7C1454.6 377.3 1455.4 376.9 1455.6 376.3 1455.8 375.7 1455.7 374.3 1455.3 373.5 1454.5 371.8 1452.7 371.2 1451.1 371.9L1404.9 393.9 1387.5 387.5 1403.7 380.5C1404.5 380.1 1404.9 378.9 1405.2 378.3 1405.4 377.7 1405.6 377.1 1405.2 376.3 1404.4 374.7 1402 373.8 1401 374.8L1379.1 384.5 1362.2 378.3 1376.1 366.4 1399.8 368.9C1401.2 368.7 1402.8 367.9 1403.3 366.7 1403.5 366.1 1403.5 366.1 1402.9 365.9 1403.5 364.1 1402.2 362.2 1400.1 362.2L1383 360.7 1396.9 348.7 1448.2 353.8C1449.6 353.7 1450.6 352.7 1451.1 351.5 1451.3 350.9 1451.3 350.9 1451.3 350.9 1451.3 348.9 1450.6 347.2 1448.6 347.2L1403.7 343.1 1421.1 329 1440.3 330.5C1442.3 330.6 1443.4 329.6 1443.8 328.4 1443.8 328.4 1444 327.8 1444 327.8 1444.1 325.8 1442.5 324.5 1441.3 324.1L1428 323.3 1440.6 312.9C1440.8 312.3 1441.1 311.7 1441.3 311.1 1441.5 310.5 1441.3 309.1 1441 308.3 1439.4 307 1437.6 306.4 1436.3 307.9L1423.7 318.3 1425 305.2C1425.1 303.2 1423.5 301.9 1422.3 301.5 1420.3 301.4 1419 303 1418.4 304.8L1416.8 324 1400 338.3 1403.9 294.1C1404 292 1402.6 290.2 1401.2 290.3 1399.1 290.3 1397.5 291.1 1397.4 293.1Z" fill="rgba(51, 121, 194, 0.58)"></path><path d="M993.3 468.3L1001.4 479.7 993 480.9C992.1 480.9 991.3 481.9 991.2 483.1 991.6 484.2 992.5 485 993.6 484.6L1004.1 483.5 1010.8 492.1 988.9 494.4C987.8 494.8 987 495.7 987 496.6 987.3 498 988.2 498.9 989.3 498.5L1013.5 496 1023.3 509.4 1004.2 509.3 1017.2 523.3 1000.7 525.3 986.1 505.8C986.2 505.4 985.9 505.3 985.5 505.1 984.8 504.8 983.9 504.8 983.2 505.4 982.5 506 982.4 507.2 982.8 508.3L996.1 525.9 985.2 526.8 978.8 518.3C978.6 517.8 978.3 517.6 977.9 517.5 977.5 517.3 976.6 517.4 975.9 517.9 975.3 518.5 975.1 519.8 975.7 520.5L980.5 527.4 966.7 529.2C965.4 529.1 964.9 530.2 964.8 531.4 964.9 532.3 965.8 533.2 967.2 532.9L980.9 531.5 977.6 539.2C977.1 540.3 977.9 541.5 978.6 541.8 979.7 542.3 980.8 541.9 981.2 540.8L985.6 530.9 996.4 530 987.8 549.8C987.3 550.9 987.7 551.9 988.8 552.4 989.6 552.7 991 552.5 991.5 551.4L1001.1 529.4 1017.6 527.4 1008.3 543.9 1026.7 539.7 1019.9 555.1 996.1 557.7C994.7 558 994.2 559.1 994.2 560 994.3 560.9 995.2 561.7 996.5 561.8L1018.2 559.1 1013.9 569 1003.2 570.5C1001.9 570.3 1001.1 571.3 1001.3 572.7 1001.4 573.6 1002.3 574.4 1003.7 574.2L1011.9 573.4 1006.3 586.2C1005.8 587.3 1006.3 588.4 1007.4 588.9S1009.5 588.9 1010 587.8L1015.6 575 1020.6 581.6C1021.4 582.8 1022.6 582.9 1023.3 582.3 1024.5 581.5 1024.6 580.3 1023.7 579.4L1017.5 570.6 1021.8 560.7 1034.6 578.5C1035.5 579.4 1036.8 579.5 1037.5 578.9 1038.7 578.1 1038.8 576.9 1037.9 576L1023.6 556.7 1030.3 541.3 1039.8 557.6 1045.5 539.6 1055.3 553.1 1045.7 575.1C1045.2 576.2 1046 577.4 1046.7 577.7 1047.8 578.2 1048.9 577.8 1049.4 576.7L1058.2 556.5 1064.7 565.5 1060.4 575.4C1059.9 576.5 1060.3 577.5 1061.4 578 1062.2 578.4 1063.6 578.1 1064.1 577L1067.4 569.3 1075.7 580.3C1076.5 581.6 1077.7 581.7 1078.6 580.7 1079.3 580.2 1079.8 579.1 1078.8 578.2L1070.7 566.8 1079.1 565.7C1080 565.6 1080.8 564.7 1080.8 563.8 1080.7 562.9 1080.1 562.2 1079.8 562 1079.4 561.9 1079 561.7 1078.5 561.9L1068 563 1061.3 554.4 1083.2 552.2C1084.3 551.8 1085.1 550.8 1085.1 549.9 1085 549.1 1084.4 548.4 1083.7 548 1083.3 547.9 1083.3 547.9 1082.8 548.1L1058.6 550.6 1048.8 537.1 1067.9 537.2 1054.8 523.2 1071.4 521.3 1086 540.8C1086.6 541.4 1087.7 541.9 1088.9 541.2 1089.6 540.6 1089.7 539.3 1089.3 538.3L1076 520.7 1086.9 519.8 1093.3 528.2C1093.7 529.3 1094.9 529.4 1096.1 528.6 1096.8 528 1096.9 526.8 1096.5 525.7L1091.5 519.2 1105.4 517.4C1106.7 517.5 1107.2 516.4 1107.3 515.1 1107.1 514.6 1106.5 513.9 1106.1 513.8 1105.8 513.6 1105.4 513.4 1104.9 513.6L1091.1 515.1 1094.5 507.4C1095 506.3 1094.2 505.1 1093.5 504.7L1093.5 504.7C1092.4 504.3 1091.3 504.7 1090.9 505.8L1086.5 515.7 1075.6 516.6 1084.3 496.8C1084.8 495.7 1084.4 494.6 1083.3 494.2S1081.1 494.1 1080.6 495.2L1071 517.2 1054.5 519.1 1063.8 502.7 1045.4 506.8 1052.1 491.5 1076 488.8C1077.4 488.5 1077.9 487.4 1077.9 486.5 1077.8 485.7 1076.9 484.8 1075.6 484.7L1054.1 487.1 1058.2 477.5 1068.9 476.1C1070.2 476.2 1071 475.3 1070.8 473.8 1070.7 472.9 1069.8 472.1 1068.5 472L1060.2 473.1 1065.8 460.3C1066.2 459.2 1065.8 458.2 1064.7 457.7S1062.6 457.6 1062.1 458.7L1056.5 471.5 1051.5 465C1051.3 464.5 1050.9 464.3 1050.6 464.1 1049.8 463.8 1049.3 464 1048.8 464.2 1047.6 465 1047.4 466.3 1048.4 467.1L1054.6 475.9 1050.2 485.8 1037.5 468C1037.1 467.9 1036.8 467.7 1036.4 467.5 1035.7 467.2 1035.1 467.4 1034.6 467.6 1033.4 468.4 1033.3 469.7 1034.2 470.5L1048.5 489.9 1041.7 505.2 1032.3 488.9 1026.6 506.9 1016.8 493.5 1026.4 471.5C1026.9 470.4 1026.1 469.2 1025.4 468.8 1024.3 468.3 1023.2 468.8 1022.7 469.9L1014.1 489.7 1007.4 481 1011.7 471.1C1012.2 470 1011.8 469 1010.7 468.5S1008.5 468.4 1008 469.5L1004.7 477.2 996.4 466.2C996.2 465.7 995.8 465.5 995.4 465.4 995.1 465.2 994.2 465.2 993.5 465.8 992.8 466.4 992.3 467.5 993.3 468.3ZM1033.3 498.5L1041 511.9 1056.1 508.4 1048.3 522.1 1058.8 533.2 1043.4 533.5 1038.8 548 1031.1 534.6 1016 538.1 1023.6 524.8 1013.3 513.3 1028.6 513.4 1033.3 498.5Z" fill="rgba(51, 121, 194, 0.58)"></path><path d="M185.3 385.9L181.5 399.4 175.4 393.6C174.8 392.9 173.5 392.9 172.5 393.6 171.9 394.5 171.8 395.8 172.8 396.4L180.2 403.9 177.8 414.5 162.3 398.8C161.3 398.3 160 398.2 159.4 398.8 158.4 399.9 158.4 401.1 159.3 401.7L176.5 419 172.2 435.1 160.2 420.1 157.5 439.1 145.6 427.4 151.6 403.8C152 403.7 151.9 403.3 151.8 402.9 151.6 402.1 151 401.5 150.1 401.3 149.2 401.1 148.2 401.8 147.6 402.8L142.2 424.2 134.7 416.3 137.3 406C137.6 405.5 137.5 405.2 137.4 404.8 137.3 404.4 136.7 403.7 135.8 403.5 134.9 403.4 133.9 404.1 133.7 404.9L131.3 413.1 121.2 403.4C120.5 402.3 119.4 402.6 118.3 403.3 117.7 403.9 117.6 405.2 118.7 406.1L128.4 415.9 120.3 418.1C119.1 418.4 118.7 419.8 118.9 420.6 119.2 421.7 120.2 422.3 121.3 422L131.8 419.2 139.3 427.1 118.5 432.7C117.3 433 116.7 434 117.1 435.2 117.3 436 118.3 436.9 119.5 436.6L142.7 430.3 154.6 442 135.9 445 150.7 456.7 134.5 461.1 117.4 444.2C116.3 443.2 115.2 443.6 114.5 444.2 113.9 444.8 113.8 446 114.5 447.1L130.2 462.3 119.8 465.1 112 457.7C111.3 456.6 110 456.6 109.1 457.7 108.4 458.3 108.3 459.5 109.4 460.5L115.2 466.4 101.7 470C100.5 470.4 100 471.3 100.3 472.5S101.6 474.2 102.7 473.9L116.2 470.2 114.3 478.2C113.8 479.6 114.5 480.6 115.4 480.8 116.8 481.3 117.8 480.6 117.9 479.3L120.9 469 131.3 466.1 125.4 487.2C125.3 488.5 126 489.5 126.9 489.7 128.3 490.2 129.3 489.5 129.4 488.2L135.5 465 151.7 460.6 144.9 478.2 162.5 471.3 158.2 487.4 135.1 493.7C133.9 494 133.4 495.4 133.7 496.2 134 497.3 135 497.9 136.1 497.6L157.3 491.8 154.5 502.5 144 505.4C142.9 505.7 142.3 506.7 142.6 507.8 142.8 508.6 143.9 509.5 145.1 509.2L153.2 507 149.8 520.4C149.3 521.7 150 522.8 151.3 522.9 152.2 523 153.3 522.7 153.4 521.5L157.2 508 163.3 513.8C163.9 514.5 165.2 514.5 165.9 513.9 166.5 513.3 166.7 512.5 166.6 512.1 166.5 511.7 166.4 511.3 165.9 511L158.5 503.5 160.9 492.9 176.4 508.6C177.4 509.1 178.7 509.2 179.3 508.6 180 508 180.2 507.1 180 506.4 179.9 506 179.9 506 179.4 505.7L162.2 488.4 166.5 472.3 178.5 487.3 181.2 468.3 193.1 480 187.1 503.6C186.9 504.5 187.2 505.6 188.6 506.1 189.5 506.3 190.5 505.6 191.1 504.6L196.5 483.2 204 491.1 201.4 501.3C200.8 502.3 201.5 503.4 202.9 503.8 203.8 504 204.8 503.3 205.4 502.3L207.4 494.3 217.5 504C218.2 505.1 219.3 504.8 220.4 504.1 220.7 503.6 220.8 502.7 220.7 502.3 220.6 501.9 220.5 501.5 220 501.3L210.3 491.5 218.4 489.3C219.6 488.9 220 487.6 219.8 486.8L219.8 486.8C219.5 485.6 218.5 485.1 217.4 485.4L206.9 488.2 199.4 480.3 220.2 474.7C221.4 474.3 222 473.4 221.7 472.2S220.4 470.5 219.2 470.8L196 477.1 184.2 465.4 202.8 462.4 188 450.7 204.2 446.3 221.3 463.2C222.4 464.1 223.5 463.8 224.2 463.2 224.8 462.6 224.9 461.4 224.2 460.3L208.9 445 218.9 442.3 226.7 449.7C227.4 450.7 228.7 450.8 229.6 449.7 230.3 449.1 230.4 447.9 229.7 446.8L223.5 441 237 437.3C238.2 437 238.8 436 238.4 434.9S237.1 433.2 236 433.5L222.5 437.2 224.4 429.2C224.7 428.7 224.6 428.3 224.5 427.9 224.3 427.1 223.8 426.8 223.3 426.6 222 426.1 220.9 426.8 220.8 428.1L217.8 438.4 207.4 441.3 213.3 420.2C213.2 419.8 213.1 419.4 213 419 212.8 418.2 212.3 418 211.8 417.7 210.4 417.2 209.4 417.9 209.3 419.2L203.2 442.4 187 446.8 193.8 429.2 176.2 436.1 180.5 420 203.6 413.7C204.8 413.4 205.3 412 205 411.2 204.7 410.1 203.8 409.5 202.6 409.8L181.8 415.5 184.2 404.9 194.7 402C195.8 401.7 196.4 400.7 196.1 399.6S194.8 397.9 193.6 398.2L185.5 400.4 188.9 387C189.2 386.5 189.1 386.1 189 385.7 188.9 385.4 188.3 384.7 187.4 384.5 186.5 384.3 185.4 384.7 185.3 385.9ZM186.9 436.1L181.3 450.4 193.4 460 178 462.5 175.9 477.6 166 465.8 151.8 471.3 157.4 456.9 145.3 447.4 160.3 445 162.8 429.8 172.3 441.7 186.9 436.1Z" fill="rgba(51, 121, 194, 0.58)"></path><path d="M469.2 496.2L443.7 515.5 432.2 513.7 440.8 507.2C441.9 506.8 441.9 505.5 441.4 504.4 440.8 503.8 439.3 503.5 438.7 504.2L426.7 512.9 415.4 511.4 422.6 502.5 437.4 500.8C437.4 500.8 437.8 500.7 437.8 500.7 438.5 500.4 439 499.3 439 498.4 438.6 497.3 437.9 496.7 436.7 496.8L426 498.1 433.2 489.2 464.7 485.1C464.7 485.1 465.2 485.3 465.2 485.3 466 485 466.4 484 466.5 483.1 466.4 481.8 465.2 481 464.1 481.5L436.6 484.8 445 473.6 457.3 472.1C457.3 472.1 457.3 472.1 457.7 472 458.5 471.7 459 471 459.1 470.1 458.7 469 457.9 468 456.6 468.1L448.4 469.2 454.6 461.1C455.6 460.3 455.2 459.2 454.5 458.6 453.7 457.6 452.4 457.7 451.6 458.9L445.2 466.6 444.6 458.7C444.2 457.6 443.3 456.6 442.2 457.1 441 457.1 440.4 457.8 440.5 459.1L442 471.4 433.4 482.2 429.9 454.3C430 453.4 428.8 452.6 427.5 452.6 426.8 452.9 425.8 453.7 425.9 455L430 486.6 422.8 495.5 421.5 484.8C421.4 483.5 420.4 483.1 419.1 483.2 418.2 483.1 417.4 484.3 417.3 485.2L419.4 499.9 412.3 509.2 408 498.4 413.8 484.9C414.2 483.8 413.8 482.7 412.7 482.3 412 481.7 410.6 482.3 410.1 483.3L405.9 493.2 401.6 482.5 414.4 453.2C414.8 452.1 414.4 451 413.3 450.6 412.3 450.1 411.2 450.6 410.7 451.6L399.5 477.3 394.4 464.6 399.3 453.2C399.7 452.2 399.3 451 398.2 450.6 397.2 450.2 396.1 450.6 395.7 451.6L392.2 459.1 388.4 449.8C388 448.7 387 448.2 385.8 448.7 384.7 449.1 384.3 450.2 384.7 451.3L388.5 460.6 381.2 457.5C380.1 457 379 457.5 378.6 458.5S378.6 460.7 379.6 461.1L390.6 465.8 395.8 478.8 370.3 467.9C369.2 467.4 368.1 467.9 367.7 468.9 367.2 470 367.7 471.1 368.7 471.5L397.9 484 402.2 494.7 392.3 490.5C391.3 490.1 390.1 490.5 389.7 491.5 389.3 492.6 389.7 493.7 390.7 494.1L404.3 499.9 408.5 510.3 397.5 508.7 388.4 496.8C387.7 496.2 386.3 495.9 385.7 496.6 384.7 497.4 384.7 498.3 385.1 499.4L391.6 508 380.6 506.4 361.3 481C360.5 480 359.6 479.9 358.5 480.4 357.5 481.2 357.6 482.5 357.9 483.2L374.7 505.8 360.9 503.6 353.6 494C353.2 492.9 351.9 492.9 350.8 493.4 350.2 494.1 349.9 495.5 350.7 496.4L355.4 502.7 345.5 501.6C344.4 501.1 343.4 501.9 343.2 503.4 343.1 504.2 343.9 505.2 344.8 505.3L354.9 506.8 348.2 511.7C347.3 512.5 347.3 513.7 348 514.3 348.4 515.5 349.3 515.5 350.1 515.2 350.5 515.1 350.5 515.1 350.8 514.9L360.4 507.6 374.2 509.8 352 526.5C350.9 527 351 528.2 351.4 529.3 352.1 529.9 353 530 353.7 529.7 354.1 529.6 354.1 529.6 354.1 529.6L380.1 510.5 391.1 512.1 382.5 518.6C381.5 519.4 381.4 520.3 381.9 521.4 382.6 522 383.6 522.5 384.3 522.2 384.7 522 384.7 522 385.1 521.9L396.9 512.8 407.9 514.4 401.1 523.2 386.4 525.2C385.2 525.3 384.3 526.5 384.3 527.4 384.7 528.5 385.5 529.4 386.6 529L397.3 527.7 390.7 536.8 358.6 540.7C357.7 540.6 356.9 541.8 356.8 542.7 357.3 543.8 358.1 544.8 359.3 544.7L386.9 541.4 378.3 552.2 366.3 553.5C365.1 553.6 364.3 554.8 364.7 555.9 364.6 556.8 365.5 557.8 366.7 557.7L374.9 556.6 368.7 564.7C368.1 565.3 368.1 566.6 369 567.6 369.5 567.8 370.4 567.9 371.1 567.6 371.1 567.6 371.5 567.4 371.9 567.3L378.1 559.2 379.2 567.3C379.1 568.2 380.3 569 381.2 569.1 381.6 569 381.6 569 381.6 569 382.7 568.5 383.1 567.5 382.9 566.7L381.5 554.8 389.9 543.6 393.4 571.5C393.9 572.6 394.5 573.2 395.8 573.2 395.8 573.2 396.2 573 396.2 573 396.9 572.7 397.5 572 397.4 570.8L393.7 539.1 400.5 530.3 401.8 541C402.3 542.1 403.1 543.1 404.2 542.6 404.4 543 404.7 542.8 404.7 542.8 405.5 542.5 405.9 541.5 406 540.6L403.9 525.9 411.1 517 415.3 527.4 409.5 540.9C409.1 541.9 409.7 543.4 410.7 543.9 411.6 543.9 412.7 543.5 413.3 542.8L417.4 532.6 421.7 543.3 409.3 572.5C408.9 573.5 409.3 574.6 410.3 575.1 411.4 575.5 412.5 575.1 412.9 574L423.8 548.5 429 561.5 424.4 572.4C423.9 573.5 424.4 574.6 425.4 575S427.6 575 428 574L431.1 566.7 434.9 576C435.3 577.1 436.3 577.5 437.5 577.1 438.6 576.7 439 575.6 438.6 574.5L434.8 565.2 442.5 568.2C443 568.4 443.5 568.6 443.9 568.5 444.3 568.3 444.9 567.7 445.1 567.1 445.5 566.1 445.1 565 444.1 564.5L432.8 560 427.5 547 453.4 557.8C453.9 558 454.4 558.2 454.8 558.1 455.2 557.9 455.8 557.2 456 556.7 456.4 555.7 456 554.6 455 554.1L425.4 541.8 421.1 531.1 431.2 535.7C431.7 535.9 432.4 535.6 432.8 535.4 433.2 535.3 433.5 535.1 433.8 534.6 434.2 533.6 433.6 532.1 432.7 532L419 525.9 414.9 515.5 426.2 517 434.9 529C435.6 529.6 436.6 530 437.4 529.7 437.8 529.6 437.8 529.6 437.6 529.2 438.7 528.7 439 527.3 438.2 526.4L431.7 517.8 443.1 519.2 462.1 545.2C462.8 545.8 463.7 545.9 464.4 545.6 464.8 545.4 464.8 545.4 464.8 545.4 465.8 544.6 466.2 543.6 465.4 542.6L448.6 520 462.4 522.2 469.7 531.8C470.5 532.8 471.4 532.8 472.1 532.6 472.1 532.6 472.5 532.4 472.5 532.4 473.5 531.6 473.4 530.3 473.1 529.6L467.9 523 478 524.6C478.4 524.4 478.7 524.3 479.1 524.1 479.5 524 480.1 523.3 480.3 522.8 480.2 521.5 479.8 520.4 478.5 520.5L468.4 519 475.1 514.1C476.1 513.3 476 512 475.7 511.3 474.9 510.3 473.6 510.4 472.5 510.9L462.9 518.2 449.2 516.3 471.4 499.6C472.4 498.8 472.7 497.4 472 496.8 471.2 495.9 470.2 495.4 469.2 496.2Z" fill="rgba(51, 121, 194, 0.58)"></path><path d="M918.1 287L907.4 293.5 906.9 285.1C906.9 284.2 906.1 283.3 904.8 283.1 903.7 283.4 902.8 284.3 902.8 285.2L903.3 296.3 893.3 302.3 892.5 279.8C892.4 278.3 891.5 277.4 890.4 277.7 889.2 277.5 888.3 278.4 888.4 279.8L889.3 304.7 880.4 310.4 858.8 299 858.3 289.7 881 275.9C881.2 275.6 881.4 275.2 881.6 274.9 881.7 274.5 881.8 273.6 881.6 273.1 880.9 271.8 879.7 271.6 878.7 272.5L858.1 285.1 857.8 273.6 868.1 266.9C868.5 267.1 868.7 266.7 868.9 266.3 869.2 265.6 869.3 264.7 868.7 264 868.2 263.3 867 263.1 865.9 263.4L857.5 269 857 254.6C857 253.7 856.1 252.8 854.9 252.6 853.8 252.9 852.9 253.8 852.8 254.7L853.4 268.1 846 264.2C844.9 263.7 843.7 264.3 843.3 265.1 842.7 266.1 842.9 267.5 844 268.1L853.5 273.2 853.8 284.6 834 274.1C832.9 273.6 831.8 273.9 831.3 275 830.7 276 831 277.1 832.1 277.7L854 289.3 854.7 299.1 833.8 312.1 825.7 307.8 824.7 282.3C824.9 281.1 823.6 280 822.6 280.3 821.3 280.1 820.8 281.2 820.5 282.4L821.5 305.5 811.2 300.1 810.9 288.7C810.9 287.8 809.7 286.7 808.8 286.6S806.8 287.8 806.6 289.1L807 297.9 794.6 291.3C793.5 290.8 792.3 291.5 791.7 292.5 791.3 293.2 791.5 294.7 792.5 295.2L804.9 301.8 797.3 306.8C796.5 307.3 796 308.4 796.7 309.6 797.2 310.4 798.8 310.7 799.5 310.2L809.1 304 819.4 309.4 799.8 321.7C798.9 322.6 798.3 323.6 799 324.9 799.5 325.6 801.1 326 801.9 325.5L823.6 311.7 831.8 316 832.8 340.5 824.3 345.5 802.4 333.9C801.3 333.3 800.2 333.7 799.7 334.7 799.1 335.8 799.3 337.2 800.3 337.8L820.1 348.3 810.5 354.5 801 349.4C799.9 348.9 798.8 349.2 798.3 350.3 797.7 351.3 798 352.4 799.1 353L806.5 356.9 795.1 364C794.4 364.5 794 366.1 794.5 366.8 795.4 367.7 796.4 368.3 797.3 367.4L809.3 360.2 809.6 369.9C810 370.9 810.8 371.9 811.7 371.9 812.6 371.9 813.3 371.4 813.7 370.7 813.7 370.7 813.9 370.3 813.7 369.8L813.5 357.4 823.1 351.2 824.3 375.4C824.1 376.6 825 377.5 826.5 377.4 827 377.2 827.5 377.1 827.9 376.4 828.1 376 828.3 375.6 828.5 375.3L827.1 348.8 835.1 344 856.7 355.4 857 365.9 835.9 379.2C834.6 379.9 834.4 381.2 835.3 382.1 835.6 383.2 836.9 383.4 838.1 382.7L857.2 370.6 857.8 382.2 848.4 388.1C847.7 388.6 847.5 389.9 847.8 390.9 848.7 391.9 849.7 392.4 850.6 391.5L857.9 387.2 858.5 399.8C858.3 401 859.4 401.6 860.6 401.8 861.2 401.6 861.9 401.1 862.3 400.4 862.3 400.4 862.4 400 862.6 399.7L862 386.3 870.9 390.9C871.6 391.3 873 391.2 873.6 390.1 874.1 389 873.5 387.8 872.7 387.4L861.8 381.6 861.2 369.9 882.7 381.4C883.8 381.9 885.1 381.2 885.6 380.2S885.8 378 884.8 377.5L861.1 364.9 860.8 355.3 881.6 342.3 890.8 347.2 891.7 373C892 374 892.9 375 894.1 375.2 894.7 375 895.4 374.5 895.8 373.8 896 373.4 896.2 373.1 896 372.5L895.1 349.4 905.3 354.8 906 366.5C905.9 367.4 906.8 368.3 908.1 368.5 909.1 368.2 910.1 367.3 910.1 366.4L909.6 357.1 920.9 363.1C921.6 363.4 923.2 362.9 923.6 362.2 924.2 361.2 923.7 359.6 922.9 359.2L911.6 353.2 919.4 348.7C919.6 348.4 919.8 348 920 347.7 920.4 347 920.4 346.1 920.2 345.5 919.3 344.6 918.1 344.4 917 344.7L907.4 351 897.1 345.5 916.7 333.3C918 332.6 918.2 331.3 917.7 330.6 917 329.3 915.8 329.1 914.7 329.5L892.9 343.3 883.7 338.4 882.6 313.9 890.8 308.7 914.5 321.2C915.6 321.8 916.6 321.5 917.2 320.4 917.8 319.3 917.4 318.3 916.4 317.7L894.8 306.3 904.8 300.3 915.7 306.1C916.4 306.4 918.1 305.9 918.6 304.9 919.2 303.8 918.5 302.5 917.8 302.2L909 297.5 920.4 290.4C920.6 290.1 920.6 290.1 920.8 289.7 921.1 289 921.2 288.1 921 287.6 920.1 286.6 918.9 286.4 918.1 287ZM879.5 336.2L879.4 338.9 877.4 340.1 860.5 350.6 858.5 351.8 856.4 350.7 839.1 341.5 836.9 340.4 836.8 338.1 836 318.2 835.9 315.9 838.1 314.3 854.8 304.1 857 302.6 859.1 303.7 876.4 312.9 878.5 314 878.5 316.7 879.5 336.2Z" fill="rgba(51, 121, 194, 0.58)"></path><path d="M772.1 465.3L747 487.1 717.5 484.8 734.2 460.4 766.9 454.5C766.9 454.5 767.2 454.3 767.2 454.3 767.9 454 768.3 452.9 768.3 452 768.2 450.8 766.9 450 765.9 450.5L737.3 455.8 745.4 443.9 758 441.5C758 441.5 758.3 441.3 758.3 441.3 759 440.9 759.4 439.9 759.4 439 759.3 437.7 758 437 757 437.5L748.3 439 754.4 430.3C754.9 429.6 754.6 428 753.9 427.4 753 426.5 751.6 427.2 751 427.9L745 436.6 743.5 428C743.4 426.7 742.1 426 741 426.5 739.8 426.7 739 427.9 739.6 429L742 441.6 733.8 453 728.5 424.5C728.4 423.3 727.1 422.5 726.1 423 724.8 423.2 724.1 424.4 724.6 425.5L730.5 458.2 713.8 482.6 700.8 455.5 711.9 424.1C712.3 423 711.8 421.9 710.7 421.5 709.6 421.2 708.5 421.7 708.2 422.7L698.4 450.5 692.2 437.5 696.3 425.8C696.7 424.7 696.2 423.6 695.1 423.2 694 422.9 693 423.4 692.6 424.5L689.8 432.5 684.9 422.4C684.8 421.1 683.3 420.9 682.3 421.4 681.2 421.9 680.8 423 681.3 424.1L685.8 433.5 677.8 430.7C676.7 430.3 675.7 430.8 675.3 431.9S675.4 434 676.5 434.4L688.2 438.5 694.5 451.5 666.7 441.7C665.6 441.4 664.6 441.9 664.2 443 663.8 444 664.3 445.1 665.4 445.5L696.9 456.6 709.7 483.2 680.2 481 659.1 456.5C658.3 455.6 657 455.7 655.9 456.2 655 457.1 655.2 458.4 655.7 459.5L674.6 481.4 660.3 480.3 652.1 470.5C651.2 469.6 650 469.7 648.9 470.3 648 471.1 648.1 472.4 648.5 473.1L654.3 479.6 643.7 478.9C642.8 478.9 641.4 479.6 641.6 480.9 641.7 482.1 642.2 483.2 643.5 483L654 483.8 647.5 489.6C646.6 490.4 646.7 491.7 647.1 492.4 647.8 493 648.9 493.3 649.6 493 649.6 493 649.9 492.8 649.9 492.8L659.7 484.6 674 485.7 652.1 504.7C651.2 505.5 651.3 506.8 651.7 507.5 652.4 508.1 653.4 508.4 654.2 508.1 654.2 508.1 654.5 507.9 654.5 507.9L679.6 486.1 709.1 488.4 692.4 512.8 659.7 518.7C658.5 518.9 657.7 520.1 658.2 521.2 658.4 522.5 659.6 523.2 660.7 522.7L689.3 517.4 681.2 529.3 668.6 531.8C667.4 531.9 666.6 533.2 667.2 534.2 667.3 535.5 668.6 536.2 669.6 535.7L678.2 534.3 672.2 542.9C671.6 543.6 672 545.2 672.7 545.8 673.4 546.3 674.3 546.4 675 546 675.4 545.8 675.7 545.7 675.9 545.1L682 536.5 683.4 545.1C683.6 546.3 684.8 547.1 685.9 546.5 685.9 546.5 686.3 546.4 686.3 546.4 687 546 687.4 545 687.4 544.1L684.9 531.5 693 519.6 698.2 548.2C698.4 549.4 699.6 550.2 700.7 549.6 700.7 549.6 701.1 549.5 701.1 549.5 701.8 549.1 702.2 548.1 702.2 547.2L696.3 514.5 713 490.1 725.8 516.8 714.7 548.3C714.3 549.3 714.8 550.4 715.9 550.8 717 551.2 718 550.7 718.4 549.6L728.4 522.2 734.6 535.2 730.5 546.9C730.1 548 730.6 549.1 731.7 549.4S733.8 549.3 734.2 548.2L737 540.2 741.5 549.6C742 550.7 743.1 551.1 744.2 550.5 745.3 550 745.6 549 745.1 547.9L740.6 538.5 748.6 541.3C749.2 541.5 749.7 541.7 750.4 541.3S751.3 540.5 751.5 539.9C751.9 538.9 751.4 537.8 750.3 537.4L738.6 533.3 732.3 520.3 760.1 530.1C760.6 530.2 761.1 530.4 761.9 530.1 762.2 529.9 762.8 529.2 763 528.7 763.3 527.6 762.8 526.5 761.7 526.1L730.3 515.1 717.5 488.4 746.9 490.7 768.7 515.7C769.4 516.3 770.5 516.6 771.2 516.3 771.2 516.3 771.6 516.1 771.6 516.1 772.5 515.2 772.3 514 772 513.3L753 491.3 767.3 492.4 775.6 502.2C776.3 502.8 777.3 503.1 778.1 502.8 778.1 502.8 778.4 502.6 778.4 502.6 779.3 501.7 779.2 500.5 778.8 499.8L773 493.2 783.6 493.9C783.9 493.8 784.5 494 784.8 493.8 785.5 493.4 786.1 492.7 786.1 491.8 786 490.6 785.4 489.5 784.2 489.7L773.6 488.9 780.2 483.2C781.1 482.3 780.9 481 780.6 480.3 779.7 479.4 778.4 479.5 777.7 479.9L767.9 488.1 753.6 487 775.6 468C776.5 467.2 776.3 465.9 776 465.2 774.4 464.6 773 464.4 772.1 465.3Z" fill="rgba(51, 121, 194, 0.58)"></path></g><defs><mask id="SvgjsMask1364"><rect width="1440" height="560" fill="#ffffff"></rect></mask><filter id="SvgjsFilter1365"><feGaussianBlur stdDeviation="1"></feGaussianBlur></filter></defs></svg>